<svg width="1280" height="720" viewBox="0 0 1280 720" xmlns="http://www.w3.org/2000/svg" role="img" aria-labelledby="title desc">
  <title id="title">Main detection interface preview</title>
  <desc id="desc">A safe illustrative preview of the brain tumor detection GUI layout without patient data.</desc>
  <rect width="1280" height="720" fill="#f6f8fb"/>
  <rect x="0" y="0" width="1280" height="70" fill="#ffffff"/>
  <rect x="0" y="69" width="1280" height="1" fill="#dfe5ef"/>
  <circle cx="44" cy="35" r="17" fill="#165dff"/>
  <text x="76" y="31" font-family="Arial, sans-serif" font-size="22" font-weight="700" fill="#1d2129">Brain Tumor Detection System</text>
  <text x="76" y="52" font-family="Arial, sans-serif" font-size="13" fill="#667085">YOLO11 multimodal MRI detection, segmentation and report assistant</text>
  <rect x="1078" y="20" width="82" height="32" rx="6" fill="#e8f0ff"/>
  <text x="1100" y="41" font-family="Arial, sans-serif" font-size="13" fill="#165dff">v1.0</text>
  <rect x="1174" y="20" width="74" height="32" rx="6" fill="#165dff"/>
  <text x="1192" y="41" font-family="Arial, sans-serif" font-size="13" fill="#ffffff">Train</text>

  <rect x="24" y="94" width="250" height="590" rx="8" fill="#ffffff" stroke="#dfe5ef"/>
  <text x="48" y="129" font-family="Arial, sans-serif" font-size="15" font-weight="700" fill="#1d2129">Workflow</text>
  <rect x="48" y="156" width="178" height="38" rx="6" fill="#165dff"/>
  <text x="75" y="181" font-family="Arial, sans-serif" font-size="14" fill="#ffffff">Open Image / NII</text>
  <rect x="48" y="212" width="178" height="38" rx="6" fill="#f2f4f7" stroke="#d0d5dd"/>
  <text x="76" y="237" font-family="Arial, sans-serif" font-size="14" fill="#344054">Batch Detection</text>
  <rect x="48" y="268" width="178" height="38" rx="6" fill="#f2f4f7" stroke="#d0d5dd"/>
  <text x="76" y="293" font-family="Arial, sans-serif" font-size="14" fill="#344054">Export Report</text>
  <text x="48" y="350" font-family="Arial, sans-serif" font-size="15" font-weight="700" fill="#1d2129">Model Status</text>
  <circle cx="58" cy="382" r="5" fill="#12b76a"/>
  <text x="75" y="387" font-family="Arial, sans-serif" font-size="13" fill="#344054">Classification model</text>
  <circle cx="58" cy="414" r="5" fill="#12b76a"/>
  <text x="75" y="419" font-family="Arial, sans-serif" font-size="13" fill="#344054">Segmentation model</text>
  <circle cx="58" cy="446" r="5" fill="#f79009"/>
  <text x="75" y="451" font-family="Arial, sans-serif" font-size="13" fill="#344054">AI assistant optional</text>

  <rect x="300" y="94" width="610" height="590" rx="8" fill="#ffffff" stroke="#dfe5ef"/>
  <text x="326" y="130" font-family="Arial, sans-serif" font-size="15" font-weight="700" fill="#1d2129">MRI Preview and Detection Overlay</text>
  <rect x="330" y="158" width="550" height="398" rx="8" fill="#101828"/>
  <circle cx="605" cy="357" r="142" fill="#263244"/>
  <ellipse cx="605" cy="357" rx="104" ry="130" fill="#344054"/>
  <path d="M572 303 C610 272 665 294 681 345 C693 383 669 438 619 450 C570 462 526 426 524 374 C523 343 541 318 572 303Z" fill="#98a2b3"/>
  <path d="M628 334 C655 324 680 343 681 371 C682 401 658 421 628 414 C603 408 592 383 601 361 C605 349 614 339 628 334Z" fill="#f04438" opacity="0.82"/>
  <rect x="592" y="324" width="104" height="100" rx="4" fill="none" stroke="#ffdd67" stroke-width="4"/>
  <text x="604" y="318" font-family="Arial, sans-serif" font-size="14" fill="#ffdd67">tumor 0.91</text>
  <rect x="330" y="579" width="132" height="44" rx="6" fill="#e8f0ff"/>
  <text x="358" y="606" font-family="Arial, sans-serif" font-size="14" fill="#165dff">Classification</text>
  <rect x="482" y="579" width="132" height="44" rx="6" fill="#fff1f3"/>
  <text x="513" y="606" font-family="Arial, sans-serif" font-size="14" fill="#d92d20">Segmentation</text>
  <rect x="634" y="579" width="132" height="44" rx="6" fill="#ecfdf3"/>
  <text x="676" y="606" font-family="Arial, sans-serif" font-size="14" fill="#039855">Report</text>

  <rect x="936" y="94" width="320" height="590" rx="8" fill="#ffffff" stroke="#dfe5ef"/>
  <text x="962" y="130" font-family="Arial, sans-serif" font-size="15" font-weight="700" fill="#1d2129">Result Panel</text>
  <rect x="962" y="160" width="268" height="92" rx="8" fill="#f9fafb" stroke="#eaecf0"/>
  <text x="982" y="190" font-family="Arial, sans-serif" font-size="14" font-weight="700" fill="#344054">Detected class</text>
  <text x="982" y="222" font-family="Arial, sans-serif" font-size="26" font-weight="700" fill="#165dff">Glioma</text>
  <rect x="962" y="274" width="268" height="92" rx="8" fill="#f9fafb" stroke="#eaecf0"/>
  <text x="982" y="304" font-family="Arial, sans-serif" font-size="14" font-weight="700" fill="#344054">Confidence</text>
  <rect x="982" y="330" width="196" height="12" rx="6" fill="#d0d5dd"/>
  <rect x="982" y="330" width="168" height="12" rx="6" fill="#12b76a"/>
  <text x="1188" y="345" font-family="Arial, sans-serif" font-size="14" fill="#344054">91%</text>
  <rect x="962" y="388" width="268" height="168" rx="8" fill="#f9fafb" stroke="#eaecf0"/>
  <text x="982" y="418" font-family="Arial, sans-serif" font-size="14" font-weight="700" fill="#344054">AI Interpretation</text>
  <text x="982" y="450" font-family="Arial, sans-serif" font-size="13" fill="#667085">Optional API-based analysis</text>
  <text x="982" y="476" font-family="Arial, sans-serif" font-size="13" fill="#667085">for research reference only.</text>
  <rect x="962" y="586" width="268" height="42" rx="6" fill="#165dff"/>
  <text x="1036" y="612" font-family="Arial, sans-serif" font-size="14" fill="#ffffff">Generate Report</text>
</svg>
