<svg width="1280" height="720" viewBox="0 0 1280 720" xmlns="http://www.w3.org/2000/svg" role="img" aria-labelledby="title desc">
  <title id="title">Training interface preview</title>
  <desc id="desc">A safe illustrative preview of the model training GUI layout.</desc>
  <rect width="1280" height="720" fill="#f6f8fb"/>
  <rect x="0" y="0" width="1280" height="70" fill="#ffffff"/>
  <rect x="0" y="69" width="1280" height="1" fill="#dfe5ef"/>
  <circle cx="44" cy="35" r="17" fill="#12b76a"/>
  <text x="76" y="31" font-family="Arial, sans-serif" font-size="22" font-weight="700" fill="#1d2129">Model Training Console</text>
  <text x="76" y="52" font-family="Arial, sans-serif" font-size="13" fill="#667085">Configure YOLO11 classification and segmentation training</text>

  <rect x="24" y="94" width="280" height="590" rx="8" fill="#ffffff" stroke="#dfe5ef"/>
  <text x="50" y="130" font-family="Arial, sans-serif" font-size="15" font-weight="700" fill="#1d2129">Task Selection</text>
  <rect x="50" y="158" width="210" height="48" rx="8" fill="#e8f0ff" stroke="#165dff"/>
  <circle cx="76" cy="182" r="8" fill="#165dff"/>
  <text x="96" y="187" font-family="Arial, sans-serif" font-size="14" fill="#1d2129">Classification YOLO11n</text>
  <rect x="50" y="224" width="210" height="48" rx="8" fill="#f9fafb" stroke="#d0d5dd"/>
  <circle cx="76" cy="248" r="8" fill="#d0d5dd"/>
  <text x="96" y="253" font-family="Arial, sans-serif" font-size="14" fill="#1d2129">Segmentation YOLO11m</text>
  <text x="50" y="330" font-family="Arial, sans-serif" font-size="15" font-weight="700" fill="#1d2129">Dataset</text>
  <rect x="50" y="356" width="210" height="88" rx="8" fill="#f9fafb" stroke="#eaecf0"/>
  <text x="68" y="386" font-family="Arial, sans-serif" font-size="13" fill="#344054">datasets/classification</text>
  <text x="68" y="414" font-family="Arial, sans-serif" font-size="13" fill="#12b76a">Structure verified</text>
  <rect x="50" y="570" width="96" height="40" rx="6" fill="#165dff"/>
  <text x="74" y="595" font-family="Arial, sans-serif" font-size="14" fill="#ffffff">Start</text>
  <rect x="164" y="570" width="96" height="40" rx="6" fill="#f2f4f7" stroke="#d0d5dd"/>
  <text x="190" y="595" font-family="Arial, sans-serif" font-size="14" fill="#344054">Stop</text>

  <rect x="330" y="94" width="390" height="590" rx="8" fill="#ffffff" stroke="#dfe5ef"/>
  <text x="356" y="130" font-family="Arial, sans-serif" font-size="15" font-weight="700" fill="#1d2129">Hyperparameters</text>
  <g font-family="Arial, sans-serif" font-size="13" fill="#344054">
    <text x="356" y="178">Epochs</text>
    <text x="356" y="238">Batch size</text>
    <text x="356" y="298">Image size</text>
    <text x="356" y="358">Learning rate</text>
    <text x="356" y="418">Optimizer</text>
    <text x="356" y="478">Device</text>
  </g>
  <g fill="#f9fafb" stroke="#d0d5dd">
    <rect x="492" y="154" width="178" height="38" rx="6"/>
    <rect x="492" y="214" width="178" height="38" rx="6"/>
    <rect x="492" y="274" width="178" height="38" rx="6"/>
    <rect x="492" y="334" width="178" height="38" rx="6"/>
    <rect x="492" y="394" width="178" height="38" rx="6"/>
    <rect x="492" y="454" width="178" height="38" rx="6"/>
  </g>
  <g font-family="Arial, sans-serif" font-size="14" fill="#1d2129">
    <text x="516" y="179">100</text>
    <text x="516" y="239">4</text>
    <text x="516" y="299">640</text>
    <text x="516" y="359">0.01</text>
    <text x="516" y="419">SGD</text>
    <text x="516" y="479">CUDA / CPU</text>
  </g>
  <rect x="356" y="548" width="102" height="42" rx="6" fill="#f2f4f7" stroke="#d0d5dd"/>
  <text x="382" y="574" font-family="Arial, sans-serif" font-size="14" fill="#344054">Default</text>
  <rect x="478" y="548" width="102" height="42" rx="6" fill="#f2f4f7" stroke="#d0d5dd"/>
  <text x="504" y="574" font-family="Arial, sans-serif" font-size="14" fill="#344054">Fast</text>
  <rect x="600" y="548" width="102" height="42" rx="6" fill="#f2f4f7" stroke="#d0d5dd"/>
  <text x="616" y="574" font-family="Arial, sans-serif" font-size="14" fill="#344054">Accurate</text>

  <rect x="746" y="94" width="510" height="590" rx="8" fill="#ffffff" stroke="#dfe5ef"/>
  <text x="772" y="130" font-family="Arial, sans-serif" font-size="15" font-weight="700" fill="#1d2129">Training Monitor</text>
  <rect x="772" y="158" width="436" height="18" rx="9" fill="#d0d5dd"/>
  <rect x="772" y="158" width="286" height="18" rx="9" fill="#12b76a"/>
  <text x="1220" y="174" text-anchor="end" font-family="Arial, sans-serif" font-size="13" fill="#344054">65%</text>
  <rect x="772" y="206" width="436" height="170" rx="8" fill="#101828"/>
  <g font-family="Consolas, monospace" font-size="13" fill="#d0d5dd">
    <text x="792" y="238">[INFO] Loading model: yolo11n.pt</text>
    <text x="792" y="268">[INFO] Dataset: datasets/classification/icon.yaml</text>
    <text x="792" y="298">Epoch 65/100 | loss 0.312 | mAP50 0.941</text>
    <text x="792" y="328">Saving checkpoint to results/classification/train</text>
  </g>
  <rect x="772" y="410" width="436" height="210" rx="8" fill="#f9fafb" stroke="#eaecf0"/>
  <polyline points="808,570 858,548 908,520 958,485 1008,454 1058,430 1108,418 1168,392" fill="none" stroke="#165dff" stroke-width="4"/>
  <polyline points="808,460 858,472 908,466 958,438 1008,428 1058,410 1108,394 1168,382" fill="none" stroke="#f79009" stroke-width="4"/>
  <text x="808" y="446" font-family="Arial, sans-serif" font-size="13" fill="#165dff">mAP50</text>
  <text x="808" y="596" font-family="Arial, sans-serif" font-size="13" fill="#f79009">loss</text>
</svg>
